<svg width="22" height="23" viewBox="0 0 22 23" fill="none" xmlns="http://www.w3.org/2000/svg">
<path d="M13.2373 4.24527C13.9275 3.76354 14.4996 3.13166 14.9106 2.3971C15.3216 1.66253 15.5608 0.844389 15.6102 0.00412182H17.4454C17.4436 1.12738 17.1451 2.23023 16.5801 3.20104C17.7756 2.9774 18.984 2.82906 20.1982 2.75692C20.105 4.94623 19.6923 7.11017 18.9732 9.18011H15.0725L17.1765 7.07606L15.879 5.77857L12.4775 9.18011H11.2461C10.9952 8.45447 10.9535 7.67288 11.1258 6.92467C11.2981 6.17646 11.6775 5.49184 12.2206 4.94906C12.5219 4.66441 12.8647 4.42711 13.2373 4.24527ZM21.4645 12.0926C21.206 11.7564 20.8735 11.4844 20.4929 11.2976C20.1122 11.1107 19.6936 11.0141 19.2696 11.0153H2.7638C2.3398 11.0144 1.92128 11.111 1.54065 11.2978C1.16003 11.4847 0.827523 11.7566 0.5689 12.0926C0.31598 12.4149 0.140712 12.7912 0.0566912 13.1922C-0.02733 13.5932 -0.0178459 14.0082 0.0844076 14.4049C0.928599 17.1577 4.51458 20.4996 7.35179 22.0265H14.6926C17.4848 20.4895 23.8833 15.2748 21.4645 12.0926ZM1.86455 9.18011H9.53568C9.48306 8.1984 9.05602 7.27423 8.34248 6.59791C7.62894 5.9216 6.68324 5.54463 5.70012 5.54463C4.71699 5.54463 3.77129 5.9216 3.05775 6.59791C2.34422 7.27423 1.91717 8.1984 1.86455 9.18011ZM5.70012 3.67452C6.45204 3.67393 7.19651 3.82355 7.88982 4.11458C8.58314 4.40562 9.21134 4.83221 9.73755 5.36932C10.2442 4.22709 11.1217 3.28942 12.2279 2.70829C12.8001 2.25763 13.256 1.67648 13.5575 1.01348C12.9129 0.399699 12.0662 0.0427263 11.1767 0.00977075C10.2873 -0.0231848 9.41644 0.27015 8.72819 0.834549C8.14251 0.350555 7.42012 0.0618522 6.66219 0.00886857C5.90425 -0.0441151 5.14872 0.141274 4.5014 0.539074C3.85408 0.936875 3.34737 1.52717 3.05225 2.22729C2.75712 2.92741 2.68835 3.70231 2.85556 4.44347C3.71888 3.93967 4.70055 3.6743 5.70012 3.67452Z" fill="black"/>
</svg>
